<svg id="Layer_1" data-name="Layer 1" xmlns="http://www.w3.org/2000/svg" viewBox="0 0 600 600"><defs><style>.cls-1{fill:#a78bfa;}.cls-2{fill:none;}</style></defs><path class="cls-1" d="M252.76,362.09l4.11-22.44q3.25-17.7,6.54-35.4c.18-1-.23-1.32-1-1.75-10.41-6.1-15.61-15.2-15.16-27.27.56-15,13-26.92,28.46-27.5,14.43-.54,27.58,10.64,29.47,25.06a29,29,0,0,1-14.94,29.7,1.53,1.53,0,0,0-.94,1.91q5.31,28.55,10.54,57.1a5.62,5.62,0,0,1,0,.59Z"/><path class="cls-1" d="M393.87,476.93a210.22,210.22,0,0,1-20.41,12.65c-54.22,29.52-119.27,34.65-174.92,4.17C76.11,426.68,78.78,295.11,129.71,232.15c52.37-64.73,159-65.93,206.47-2.79,0,0-87.74-65-156.12,2.79C116.21,295.41,145.2,401.24,238.44,421a121.29,121.29,0,0,0,68.47-4.91A126.48,126.48,0,0,1,342.6,429C361.43,439.28,378,454.87,393.87,476.93Z"/><path class="cls-1" d="M456.93,409.3a191,191,0,0,0-28.75-27.57,119.32,119.32,0,0,0-47.7-22.28,156.52,156.52,0,0,1,5.16-23.9,195,195,0,0,0,13.59-57.23C411.7,136.6,274.23,93.68,154.49,79.68c0,0,262.3-82.83,324.88,162.27C495.6,305.47,484.28,363.37,456.93,409.3Z"/><path class="cls-1" d="M541.59,503.74c-13,7.23-28,10.72-43.28,10.72-31.6,0-64.52-14.9-83.47-42.72q-2.44-3.6-5-7.08A227.75,227.75,0,0,0,390.34,441c-14.14-14.84-30.22-26.88-49.46-35.25q-3.9-1.71-8-3.19a158.78,158.78,0,0,0-32.36-8c18.25-11.11,36.85-16.86,55-17.28.74,0,1.46,0,2.2,0,1,0,2,0,3,0a90.76,90.76,0,0,1,18.27,2.47,99.06,99.06,0,0,1,37,18,177.47,177.47,0,0,1,29.35,29.09c1.73,2.13,3.43,4.3,5.08,6.47C478,469.84,489.09,479.2,541.59,503.74Z"/><rect class="cls-2" width="600" height="600"/></svg>