<svg id="Layer_1" data-name="Layer 1" xmlns="http://www.w3.org/2000/svg" viewBox="0 0 542.9 162.44"><defs><style>.cls-1,.cls-2{fill:#a78bfa;}.cls-2{font-size:101.22px;font-family:Roboto-Bold, Roboto;font-weight:700;}</style></defs><path class="cls-1" d="M85.48,319.92c.51-2.74,1-5.44,1.49-8.13.79-4.27,1.57-8.55,2.37-12.83.07-.35-.08-.48-.35-.63a10.34,10.34,0,0,1-5.49-9.88,10.56,10.56,0,1,1,15.58,9.87.56.56,0,0,0-.34.7q1.92,10.34,3.82,20.69a1.43,1.43,0,0,1,0,.21Z" transform="translate(-28.92 -212.7)"/><path class="cls-1" d="M136.62,361.54a76.48,76.48,0,0,1-7.4,4.59c-19.64,10.69-43.22,12.55-63.38,1.51-44.37-24.31-43.4-72-25-94.8,19-23.46,57.6-23.9,74.82-1,0,0-31.79-23.53-56.57,1C36,295.76,46.5,334.11,80.3,341.27a43.85,43.85,0,0,0,24.81-1.78A46,46,0,0,1,118,344.16C124.86,347.9,130.85,353.55,136.62,361.54Z" transform="translate(-28.92 -212.7)"/><path class="cls-1" d="M159.47,337a69.76,69.76,0,0,0-10.41-10A43.27,43.27,0,0,0,131.77,319a56.19,56.19,0,0,1,1.87-8.67,70.54,70.54,0,0,0,4.92-20.73c4.52-51.36-45.3-66.92-88.69-72,0,0,95.06-30,117.74,58.81C173.49,299.41,169.39,320.39,159.47,337Z" transform="translate(-28.92 -212.7)"/><path class="cls-1" d="M190.15,371.26a32.17,32.17,0,0,1-15.68,3.88c-11.45,0-23.38-5.4-30.25-15.48-.59-.87-1.19-1.72-1.8-2.56a82.19,82.19,0,0,0-7.08-8.58,54.73,54.73,0,0,0-17.92-12.77c-1-.41-1.91-.8-2.9-1.16a57.85,57.85,0,0,0-11.73-2.91,40.27,40.27,0,0,1,19.92-6.26h.8l1.08,0a32.75,32.75,0,0,1,6.62.89,35.79,35.79,0,0,1,13.41,6.53,64.22,64.22,0,0,1,10.64,10.53c.63.78,1.24,1.56,1.84,2.35C167.1,359,171.13,362.36,190.15,371.26Z" transform="translate(-28.92 -212.7)"/><text class="cls-2" transform="translate(151.74 134.67)">ryptChat</text><text class="cls-2" transform="translate(151.74 134.67)">ryptChat</text></svg>