<svg id="Layer_1" data-name="Layer 1" xmlns="http://www.w3.org/2000/svg" viewBox="0 0 540.97 162.44"><defs><style>.cls-1{fill:#a78bfa;}</style></defs><path class="cls-1" d="M85.48,319.92c.51-2.74,1-5.44,1.49-8.13.79-4.27,1.57-8.55,2.37-12.83.07-.35-.08-.48-.35-.63a10.34,10.34,0,0,1-5.49-9.88,10.56,10.56,0,1,1,15.58,9.87.56.56,0,0,0-.34.7q1.92,10.34,3.82,20.69a1.43,1.43,0,0,1,0,.21Z" transform="translate(-28.92 -212.7)"/><path class="cls-1" d="M136.62,361.54a76.48,76.48,0,0,1-7.4,4.59c-19.64,10.69-43.22,12.55-63.38,1.51-44.37-24.31-43.4-72-25-94.8,19-23.46,57.6-23.9,74.82-1,0,0-31.79-23.53-56.57,1C36,295.76,46.5,334.11,80.3,341.27a43.85,43.85,0,0,0,24.81-1.78A46,46,0,0,1,118,344.16C124.86,347.9,130.85,353.55,136.62,361.54Z" transform="translate(-28.92 -212.7)"/><path class="cls-1" d="M159.47,337a69.76,69.76,0,0,0-10.41-10A43.27,43.27,0,0,0,131.77,319a56.19,56.19,0,0,1,1.87-8.67,70.54,70.54,0,0,0,4.92-20.73c4.52-51.36-45.3-66.92-88.69-72,0,0,95.06-30,117.74,58.81C173.49,299.41,169.39,320.39,159.47,337Z" transform="translate(-28.92 -212.7)"/><path class="cls-1" d="M190.15,371.26a32.17,32.17,0,0,1-15.68,3.88c-11.45,0-23.38-5.4-30.25-15.48-.59-.87-1.19-1.72-1.8-2.56a82.19,82.19,0,0,0-7.08-8.58,54.73,54.73,0,0,0-17.92-12.77c-1-.41-1.91-.8-2.9-1.16a57.85,57.85,0,0,0-11.73-2.91,40.27,40.27,0,0,1,19.92-6.26h.8l1.08,0a32.75,32.75,0,0,1,6.62.89,35.79,35.79,0,0,1,13.41,6.53,64.22,64.22,0,0,1,10.64,10.53c.63.78,1.24,1.56,1.84,2.35C167.1,359,171.13,362.36,190.15,371.26Z" transform="translate(-28.92 -212.7)"/><path class="cls-1" d="M216.2,307.28a39.31,39.31,0,0,0-5.14-.39q-8.1,0-10.63,5.48v35H186.15V293.89h13.49l.4,6.37q4.31-7.35,11.91-7.36a15,15,0,0,1,4.45.64Z" transform="translate(-28.92 -212.7)"/><path class="cls-1" d="M243.93,327.15l9.88-33.26h15.33l-21.5,61.78-1.19,2.82Q241.65,369,230.63,369a22.68,22.68,0,0,1-6.32-.94V357.2l2.17.05a11.84,11.84,0,0,0,6.06-1.23,8.1,8.1,0,0,0,3.13-4.11l1.68-4.39-18.73-53.63H234Z" transform="translate(-28.92 -212.7)"/><path class="cls-1" d="M322.91,321.12q0,12.36-5.61,19.8a18,18,0,0,1-15.15,7.44,16.67,16.67,0,0,1-13.1-5.64v25.21H274.77v-74H288l.49,5.24a16.79,16.79,0,0,1,13.54-6.23q9.88,0,15.37,7.31t5.49,20.17Zm-14.28-1q0-7.45-2.65-11.51a8.61,8.61,0,0,0-7.68-4.06q-6.72,0-9.25,5.15v21.89q2.63,5.29,9.35,5.29Q308.63,336.84,308.63,320.08Z" transform="translate(-28.92 -212.7)"/><path class="cls-1" d="M348.86,280.74v13.15H358v10.48h-9.14v26.69a6.38,6.38,0,0,0,1.14,4.25c.75.85,2.2,1.28,4.35,1.28a22.88,22.88,0,0,0,4.2-.34v10.82a29.33,29.33,0,0,1-8.65,1.29q-15,0-15.32-15.18V304.37h-7.81V293.89h7.81V280.74Z" transform="translate(-28.92 -212.7)"/><path class="cls-1" d="M423.39,323.4q-.84,11.61-8.57,18.28t-20.39,6.68q-13.85,0-21.77-9.32t-7.93-25.58v-4.4a43.15,43.15,0,0,1,3.65-18.29,27.45,27.45,0,0,1,10.46-12.13,29.24,29.24,0,0,1,15.79-4.22q12.45,0,20.06,6.67t8.8,18.73H408.67q-.56-7-3.88-10.11t-10.16-3.14q-7.41,0-11.1,5.32t-3.78,16.48v5.44q0,11.65,3.53,17.05t11.15,5.39q6.87,0,10.26-3.14t3.88-9.71Z" transform="translate(-28.92 -212.7)"/><path class="cls-1" d="M446.13,299.72a17.82,17.82,0,0,1,14.28-6.82q17.4,0,17.65,20.22v34.25H463.77V313.51c0-3.06-.65-5.33-2-6.8s-3.51-2.2-6.58-2.2q-6.27,0-9.09,4.85v38H431.85V271.45h14.28Z" transform="translate(-28.92 -212.7)"/><path class="cls-1" d="M519.82,347.37a16,16,0,0,1-1.43-4.8,17.28,17.28,0,0,1-13.49,5.79,19,19,0,0,1-13-4.55,14.62,14.62,0,0,1-5.16-11.47q0-8.5,6.3-13t18.21-4.59h6.58v-3.07a8.8,8.8,0,0,0-1.91-5.93c-1.26-1.48-3.27-2.22-6-2.22a8.47,8.47,0,0,0-5.66,1.73,5.85,5.85,0,0,0-2.05,4.74H487.89a14.38,14.38,0,0,1,2.87-8.6,19,19,0,0,1,8.11-6.2,29.5,29.5,0,0,1,11.76-2.25q9.89,0,15.69,5t5.81,14V335q0,7.61,2.13,11.52v.84ZM508,337.43a12.28,12.28,0,0,0,5.83-1.41,9.29,9.29,0,0,0,4-3.78v-9.19h-5.34q-10.73,0-11.42,7.41l-.05.84a5.72,5.72,0,0,0,1.88,4.4A7.27,7.27,0,0,0,508,337.43Z" transform="translate(-28.92 -212.7)"/><path class="cls-1" d="M560.21,280.74v13.15h9.14v10.48h-9.14v26.69a6.38,6.38,0,0,0,1.13,4.25c.76.85,2.21,1.28,4.35,1.28a22.88,22.88,0,0,0,4.2-.34v10.82a29.28,29.28,0,0,1-8.65,1.29q-15,0-15.32-15.18V304.37h-7.81V293.89h7.81V280.74Z" transform="translate(-28.92 -212.7)"/><path class="cls-1" d="M216.2,307.28a39.31,39.31,0,0,0-5.14-.39q-8.1,0-10.63,5.48v35H186.15V293.89h13.49l.4,6.37q4.31-7.35,11.91-7.36a15,15,0,0,1,4.45.64Z" transform="translate(-28.92 -212.7)"/><path class="cls-1" d="M243.93,327.15l9.88-33.26h15.33l-21.5,61.78-1.19,2.82Q241.65,369,230.63,369a22.68,22.68,0,0,1-6.32-.94V357.2l2.17.05a11.84,11.84,0,0,0,6.06-1.23,8.1,8.1,0,0,0,3.13-4.11l1.68-4.39-18.73-53.63H234Z" transform="translate(-28.92 -212.7)"/><path class="cls-1" d="M322.91,321.12q0,12.36-5.61,19.8a18,18,0,0,1-15.15,7.44,16.67,16.67,0,0,1-13.1-5.64v25.21H274.77v-74H288l.49,5.24a16.79,16.79,0,0,1,13.54-6.23q9.88,0,15.37,7.31t5.49,20.17Zm-14.28-1q0-7.45-2.65-11.51a8.61,8.61,0,0,0-7.68-4.06q-6.72,0-9.25,5.15v21.89q2.63,5.29,9.35,5.29Q308.63,336.84,308.63,320.08Z" transform="translate(-28.92 -212.7)"/><path class="cls-1" d="M348.86,280.74v13.15H358v10.48h-9.14v26.69a6.38,6.38,0,0,0,1.14,4.25c.75.85,2.2,1.28,4.35,1.28a22.88,22.88,0,0,0,4.2-.34v10.82a29.33,29.33,0,0,1-8.65,1.29q-15,0-15.32-15.18V304.37h-7.81V293.89h7.81V280.74Z" transform="translate(-28.92 -212.7)"/><path class="cls-1" d="M423.39,323.4q-.84,11.61-8.57,18.28t-20.39,6.68q-13.85,0-21.77-9.32t-7.93-25.58v-4.4a43.15,43.15,0,0,1,3.65-18.29,27.45,27.45,0,0,1,10.46-12.13,29.24,29.24,0,0,1,15.79-4.22q12.45,0,20.06,6.67t8.8,18.73H408.67q-.56-7-3.88-10.11t-10.16-3.14q-7.41,0-11.1,5.32t-3.78,16.48v5.44q0,11.65,3.53,17.05t11.15,5.39q6.87,0,10.26-3.14t3.88-9.71Z" transform="translate(-28.92 -212.7)"/><path class="cls-1" d="M446.13,299.72a17.82,17.82,0,0,1,14.28-6.82q17.4,0,17.65,20.22v34.25H463.77V313.51c0-3.06-.65-5.33-2-6.8s-3.51-2.2-6.58-2.2q-6.27,0-9.09,4.85v38H431.85V271.45h14.28Z" transform="translate(-28.92 -212.7)"/><path class="cls-1" d="M519.82,347.37a16,16,0,0,1-1.43-4.8,17.28,17.28,0,0,1-13.49,5.79,19,19,0,0,1-13-4.55,14.62,14.62,0,0,1-5.16-11.47q0-8.5,6.3-13t18.21-4.59h6.58v-3.07a8.8,8.8,0,0,0-1.91-5.93c-1.26-1.48-3.27-2.22-6-2.22a8.47,8.47,0,0,0-5.66,1.73,5.85,5.85,0,0,0-2.05,4.74H487.89a14.38,14.38,0,0,1,2.87-8.6,19,19,0,0,1,8.11-6.2,29.5,29.5,0,0,1,11.76-2.25q9.89,0,15.69,5t5.81,14V335q0,7.61,2.13,11.52v.84ZM508,337.43a12.28,12.28,0,0,0,5.83-1.41,9.29,9.29,0,0,0,4-3.78v-9.19h-5.34q-10.73,0-11.42,7.41l-.05.84a5.72,5.72,0,0,0,1.88,4.4A7.27,7.27,0,0,0,508,337.43Z" transform="translate(-28.92 -212.7)"/><path class="cls-1" d="M560.21,280.74v13.15h9.14v10.48h-9.14v26.69a6.38,6.38,0,0,0,1.13,4.25c.76.85,2.21,1.28,4.35,1.28a22.88,22.88,0,0,0,4.2-.34v10.82a29.28,29.28,0,0,1-8.65,1.29q-15,0-15.32-15.18V304.37h-7.81V293.89h7.81V280.74Z" transform="translate(-28.92 -212.7)"/></svg>